<?xml version="1.0" standalone="no"?>
<!DOCTYPE svg PUBLIC "-//W3C//DTD SVG 20010904//EN"
 "http://www.w3.org/TR/2001/REC-SVG-20010904/DTD/svg10.dtd">
<svg version="1.0" xmlns="http://www.w3.org/2000/svg"
 width="260.000000pt" height="260.000000pt" viewBox="0 0 260.000000 260.000000"
 preserveAspectRatio="xMidYMid meet">
<metadata>
Created by potrace 1.11, written by Peter Selinger 2001-2013
</metadata>
<g transform="translate(0.000000,260.000000) scale(0.100000,-0.100000)"
fill="#000000" stroke="none">
<path d="M430 2330 c-99 -31 -151 -70 -205 -151 -42 -62 -53 -101 -58 -201 -3
-76 -3 -78 -45 -119 -90 -90 -55 -195 72 -214 46 -7 49 -6 44 13 -8 30 3 40
52 47 62 8 66 9 151 30 75 18 141 16 154 -5 3 -6 -9 -36 -28 -68 -50 -85 -78
-169 -81 -237 -2 -57 21 -207 44 -288 6 -20 9 -41 6 -45 -9 -15 -21 -150 -20
-232 1 -59 14 -138 42 -260 117 -511 114 -498 126 -569 4 -24 22 -23 33 2 12
26 10 117 -4 208 -9 55 0 109 18 109 5 0 10 -15 11 -32 0 -18 2 -37 3 -43 0
-5 5 -32 9 -60 14 -94 17 -110 27 -147 5 -20 14 -40 20 -44 26 -16 32 19 30
180 -1 136 2 166 13 166 10 0 16 -20 21 -72 7 -80 10 -98 25 -176 12 -67 26
-93 45 -86 16 6 21 21 30 89 3 22 8 56 12 75 4 19 7 49 8 67 2 67 20 47 29
-32 17 -143 27 -180 49 -172 26 8 48 59 67 162 31 158 28 152 54 116 12 -17
29 -48 36 -71 24 -72 49 -42 55 67 2 43 4 82 4 86 1 4 11 -1 23 -13 44 -41 52
-29 49 80 -2 53 -2 54 17 37 10 -9 26 -17 35 -17 14 0 16 8 11 54 -2 29 -7 63
-9 75 -4 22 -4 22 21 2 33 -26 64 -17 64 20 0 30 -43 134 -60 144 -6 3 -10 11
-10 18 0 6 19 -7 41 -31 23 -23 45 -42 50 -42 11 0 9 -5 15 52 4 36 0 57 -20
96 -14 28 -30 53 -36 57 -5 3 -10 11 -10 16 0 6 4 7 10 4 21 -13 49 -13 60 1
23 27 3 58 -57 86 -32 15 -47 25 -33 23 68 -13 83 -13 106 -5 42 16 31 48 -26
74 l-49 23 53 12 c65 14 98 44 75 66 -8 8 -26 16 -41 17 -33 3 -27 13 21 38
58 29 64 60 12 60 l-26 0 31 19 c18 11 35 24 38 30 11 17 -13 51 -36 51 -17 0
-11 7 25 30 26 16 47 33 47 37 -1 27 -22 36 -80 36 -65 0 -69 12 -7 21 57 9
97 35 97 64 0 18 -58 41 -90 36 l-25 -4 25 20 c14 12 33 28 43 35 28 24 21 43
-19 51 l-37 7 39 19 c21 10 79 35 128 54 129 52 164 52 441 -7 73 -15 183 -19
216 -7 29 10 39 27 17 29 -7 0 11 9 41 20 83 29 104 58 43 60 -22 0 -18 4 27
25 30 13 57 27 60 30 11 11 -24 22 -88 29 -72 7 -127 12 -193 20 -24 2 -70 7
-103 10 -110 11 -260 44 -431 95 -93 28 -176 53 -184 55 -8 2 -37 9 -65 15
-27 7 -59 14 -70 15 -187 27 -371 26 -485 -4 -90 -24 -252 -81 -315 -111 -11
-6 -45 -19 -75 -29 -30 -10 -63 -22 -74 -27 -16 -6 -15 -1 8 38 48 82 30 91
-39 21 -55 -57 -44 -28 15 36 42 46 45 58 18 74 -20 13 -120 -54 -177 -120
-23 -26 -38 -39 -32 -28 12 27 84 100 143 148 88 70 83 98 -12 67z"/>
</g>
</svg>
